<svg width="26" height="24" viewBox="0 0 26 24" fill="none" xmlns="http://www.w3.org/2000/svg">
<g filter="url(#filter0_d_2_1038)">
<path fill-rule="evenodd" clip-rule="evenodd" d="M17.8942 11.0715L21.6712 14.6313C21.8399 14.8079 21.8316 15.0783 21.6524 15.2454L20.9914 15.8684C20.9027 15.9526 20.7821 16 20.6562 16C20.5303 16 20.4096 15.9526 20.3209 15.8684L16.5439 12.3085C16.4394 12.21 16.3446 12.1028 16.2606 11.9881L15.5524 11.0982C14.3806 11.9801 12.9255 12.4602 11.426 12.4598C8.33594 12.4699 5.65084 10.461 4.9603 7.62231C4.26977 4.78365 5.75809 1.87288 8.54414 0.613257C11.3302 -0.646363 14.6704 0.0813446 16.5873 2.36555C18.5042 4.64977 18.4862 7.88086 16.5439 10.1459L17.4881 10.76C17.6356 10.849 17.7718 10.9535 17.8942 11.0715ZM6.70508 6.23017C6.70508 8.68773 8.81889 10.68 11.4264 10.68C12.6786 10.68 13.8795 10.2112 14.7649 9.37666C15.6503 8.54216 16.1477 7.41034 16.1477 6.23017C16.1477 3.77262 14.0339 1.78037 11.4264 1.78037C8.81889 1.78037 6.70508 3.77262 6.70508 6.23017Z" fill="black"/>
</g>
<defs>
<filter id="filter0_d_2_1038" x="0.79248" y="0" width="25" height="24" filterUnits="userSpaceOnUse" color-interpolation-filters="sRGB">
<feFlood flood-opacity="0" result="BackgroundImageFix"/>
<feColorMatrix in="SourceAlpha" type="matrix" values="0 0 0 0 0 0 0 0 0 0 0 0 0 0 0 0 0 0 127 0" result="hardAlpha"/>
<feOffset dy="4"/>
<feGaussianBlur stdDeviation="2"/>
<feComposite in2="hardAlpha" operator="out"/>
<feColorMatrix type="matrix" values="0 0 0 0 0 0 0 0 0 0 0 0 0 0 0 0 0 0 0.25 0"/>
<feBlend mode="normal" in2="BackgroundImageFix" result="effect1_dropShadow_2_1038"/>
<feBlend mode="normal" in="SourceGraphic" in2="effect1_dropShadow_2_1038" result="shape"/>
</filter>
</defs>
</svg>
