<?xml version="1.0" encoding="UTF-8" standalone="no"?>
<!DOCTYPE svg PUBLIC "-//W3C//DTD SVG 1.1//EN" "http://www.w3.org/Graphics/SVG/1.1/DTD/svg11.dtd">
<svg xmlns="http://www.w3.org/2000/svg" xmlns:xlink="http://www.w3.org/1999/xlink" version="1.1" width="32pt" height="32pt" viewBox="0 0 32 32">
<g enable-background="new">
<path transform="matrix(1,0,0,-1,1,33)" d="M 15.000091 27.046998 L 14.068774 26.682787 L 15.000165 24.301136 L 15.931427 26.682839 L 15.000091 27.046998 Z M 4.846751 17 L 5.220541 16.072487 L 7.522044 17 L 5.220541 17.927514 L 4.846751 17 Z M 15.000091 6.953003 L 15.931427 7.317162 L 15.000165 9.698864 L 14.068774 7.317213 L 15.000091 6.953003 Z M 25.153248 17 L 24.779458 17.927514 L 22.477955 17 L 24.779458 16.072487 L 25.153248 17 Z M 23.82651 17.365113 L 24.052014 16.39087 L 24.053492 16.391213 L 23.82651 17.365113 Z M 23.82651 16.634888 L 24.053494 17.608788 L 24.052014 17.60913 L 23.82651 16.634888 Z M 29.251986 9.787109 L 30.251986 9.787109 L 29.251986 9.787109 Z M 15.366062 8.336548 L 14.387076 8.132618 L 14.387207 8.131996 L 15.366062 8.336548 Z M 14.634119 8.336548 L 15.612964 8.131943 L 15.613105 8.132618 L 14.634119 8.336548 Z M 6.17349 16.634888 L 5.947986 17.60913 L 5.946507 17.608788 L 6.17349 16.634888 Z M 6.17349 17.365113 L 5.946506 16.391213 L 5.947986 16.39087 L 6.17349 17.365113 Z M 14.634119 25.663453 L 15.613105 25.867383 L 15.612964 25.868058 L 14.634119 25.663453 Z M 15.366062 25.663453 L 14.387207 25.868004 L 14.387077 25.867383 L 15.366062 25.663453 Z M 30.999999 24.21289 C 30.999999 29.056483 27.07076 33 22.233693 33 L 22.233693 31 C 25.961165 31 28.999999 27.956946 28.999999 24.21289 L 30.999999 24.21289 Z M 22.233693 33 C 18.59163 33 15.362239 30.71924 14.068754 27.411156 L 15.931427 26.682839 C 16.931292 29.239989 19.432169 31 22.233693 31 L 22.233693 33 Z M 15.931408 27.411208 C 14.637733 30.71925 11.408182 33 7.766306 33 L 7.766306 31 C 10.56765 31 13.068734 29.239979 14.068774 26.682787 L 15.931408 27.411208 Z M 7.766306 33 C 2.929238 33 -1 29.056483 -1 24.21289 L 1 24.21289 C 1 27.956946 4.038834 31 7.766306 31 L 7.766306 33 Z M -1 24.21289 C -1 20.576683 1.191232 17.395035 4.47296 16.072487 L 5.220541 17.927514 C 2.692012 18.946518 1 21.396462 1 24.21289 L -1 24.21289 Z M 4.47296 17.927514 C 1.191232 16.604966 -1 13.423317 -1 9.787109 L 1 9.787109 C 1 12.603539 2.692012 15.053482 5.220541 16.072487 L 4.47296 17.927514 Z M -1 9.787109 C -1 4.943518 2.929238 1 7.766306 1 L 7.766306 3 C 4.038834 3 1 6.043055 1 9.787109 L -1 9.787109 Z M 7.766306 1 C 11.408182 1 14.637733 3.28075 15.931408 6.588793 L 14.068774 7.317213 C 13.068734 4.760021 10.56765 3 7.766306 3 L 7.766306 1 Z M 14.068754 6.588844 C 15.362239 3.28076 18.59163 1 22.233693 1 L 22.233693 3 C 19.432169 3 16.931292 4.760012 15.931427 7.317162 L 14.068754 6.588844 Z M 22.233693 1 C 27.07076 1 30.999999 4.943518 30.999999 9.787109 L 28.999999 9.787109 C 28.999999 6.043055 25.961165 3 22.233693 3 L 22.233693 1 Z M 30.999999 9.787109 C 30.999999 13.423317 28.808768 16.604966 25.527039 17.927514 L 24.779458 16.072487 C 27.307988 15.053482 28.999999 12.603539 28.999999 9.787109 L 30.999999 9.787109 Z M 25.527039 16.072487 C 28.808768 17.395035 30.999999 20.576683 30.999999 24.21289 L 28.999999 24.21289 C 28.999999 21.396462 27.307988 18.946518 24.779458 17.927514 L 25.527039 16.072487 Z M 23.601006 18.339356 C 22.975287 18.194523 22.53724 17.63663 22.53724 17 L 24.53724 17 C 24.53724 16.712004 24.339154 16.457333 24.052014 16.39087 L 23.601006 18.339356 Z M 22.53724 17 C 22.53724 16.36337 22.975287 15.805477 23.601006 15.660645 L 24.052014 17.60913 C 24.339154 17.542668 24.53724 17.287997 24.53724 17 L 22.53724 17 Z M 23.599528 15.66099 C 26.33977 15.022331 28.251986 12.611233 28.251986 9.787109 L 30.251986 9.787109 C 30.251986 13.537937 27.70205 16.75843 24.053492 17.608788 L 23.599528 15.66099 Z M 28.251986 9.787109 C 28.251986 6.456505 25.548806 3.75 22.233693 3.75 L 22.233693 1.75 C 26.658406 1.75 30.251986 5.356972 30.251986 9.787109 L 28.251986 9.787109 Z M 22.233693 3.75 C 19.405129 3.75 16.924677 5.766748 16.344918 8.5411 L 14.387207 8.131996 C 15.160301 4.43247 18.456505 1.75 22.233693 1.75 L 22.233693 3.75 Z M 16.345047 8.540478 C 16.212584 9.176386 15.65217 9.634644 15.000091 9.634644 L 15.000091 7.634644 C 14.70193 7.634644 14.447224 7.843878 14.387077 8.132618 L 16.345047 8.540478 Z M 15.000091 9.634644 C 14.348011 9.634644 13.787599 9.176386 13.655133 8.540478 L 15.613105 8.132618 C 15.552958 7.843878 15.298251 7.634644 15.000091 7.634644 L 15.000091 9.634644 Z M 13.655274 8.541153 C 13.075347 5.766747 10.594859 3.75 7.766306 3.75 L 7.766306 1.75 C 11.543506 1.75 14.839672 4.432472 15.612964 8.131943 L 13.655274 8.541153 Z M 7.766306 3.75 C 4.451193 3.75 1.748014 6.456505 1.748014 9.787109 L -.251986 9.787109 C -.251986 5.356972 3.341593 1.75 7.766306 1.75 L 7.766306 3.75 Z M 1.748014 9.787109 C 1.748014 12.611233 3.660229 15.022331 6.400472 15.66099 L 5.946507 17.608788 C 2.29795 16.75843 -.251986 13.537937 -.251986 9.787109 L 1.748014 9.787109 Z M 6.398993 15.660645 C 7.024712 15.805477 7.46276 16.36337 7.46276 17 L 5.46276 17 C 5.46276 17.287997 5.660845 17.542668 5.947986 17.60913 L 6.398993 15.660645 Z M 7.46276 17 C 7.46276 17.63663 7.024712 18.194523 6.398993 18.339356 L 5.947986 16.39087 C 5.660845 16.457333 5.46276 16.712004 5.46276 17 L 7.46276 17 Z M 6.400472 18.339013 C 3.660229 18.977669 1.748014 21.388768 1.748014 24.21289 L -.251986 24.21289 C -.251986 20.462063 2.29795 17.24157 5.946507 16.391213 L 6.400472 18.339013 Z M 1.748014 24.21289 C 1.748014 27.543496 4.451193 30.25 7.766306 30.25 L 7.766306 32.25 C 3.341593 32.25 -.251986 28.643029 -.251986 24.21289 L 1.748014 24.21289 Z M 7.766306 30.25 C 10.594859 30.25 13.075347 28.233254 13.655274 25.458847 L 15.612964 25.868058 C 14.839672 29.567528 11.543506 32.25 7.766306 32.25 L 7.766306 30.25 Z M 13.655133 25.459523 C 13.787599 24.823615 14.348011 24.365357 15.000091 24.365357 L 15.000091 26.365357 C 15.298251 26.365357 15.552958 26.156123 15.613105 25.867383 L 13.655133 25.459523 Z M 15.000091 24.365357 C 15.65217 24.365357 16.212584 24.823615 16.345047 25.459523 L 14.387077 25.867383 C 14.447224 26.156123 14.70193 26.365357 15.000091 26.365357 L 15.000091 24.365357 Z M 16.344918 25.4589 C 16.924677 28.233252 19.405129 30.25 22.233693 30.25 L 22.233693 32.25 C 18.456505 32.25 15.160301 29.56753 14.387207 25.868004 L 16.344918 25.4589 Z M 22.233693 30.25 C 25.548806 30.25 28.251986 27.543496 28.251986 24.21289 L 30.251986 24.21289 C 30.251986 28.643029 26.658406 32.25 22.233693 32.25 L 22.233693 30.25 Z M 28.251986 24.21289 C 28.251986 21.388768 26.33977 18.977669 23.599528 18.339013 L 24.053492 16.391213 C 27.70205 17.24157 30.251986 20.462063 30.251986 24.21289 L 28.251986 24.21289 Z " fill="#3db370"/>
<path transform="matrix(1,0,0,-1,1,33)" d="M 29.999999 24.21289 C 29.999999 28.506714 26.515963 32 22.233693 32 C 19.0119 32 16.146765 29.979615 15.000091 27.046998 C 13.853233 29.979615 10.987916 32 7.766306 32 C 3.484036 32 0 28.506714 0 24.21289 C 0 20.986573 1.941622 18.170777 4.846751 17 C 1.941622 15.829224 0 13.013428 0 9.787109 C 0 5.493286 3.484036 2 7.766306 2 C 10.987916 2 13.853233 4.020386 15.000091 6.953003 C 16.146765 4.020386 19.0119 2 22.233693 2 C 26.515963 2 29.999999 5.493286 29.999999 9.787109 C 29.999999 13.013428 28.058377 15.829224 25.153248 17 C 28.058377 18.170777 29.999999 20.986573 29.999999 24.21289 Z M 23.82651 17.365113 C 23.65722 17.325928 23.53724 17.174317 23.53724 17 C 23.53724 16.825684 23.65722 16.674073 23.82651 16.634888 C 27.020909 15.890381 29.251986 13.074585 29.251986 9.787109 C 29.251986 5.906738 26.103606 2.75 22.233693 2.75 C 18.930817 2.75 16.04249 5.099609 15.366062 8.336548 C 15.329904 8.510132 15.17705 8.634644 15.000091 8.634644 C 14.823132 8.634644 14.670278 8.510132 14.634119 8.336548 C 13.95751 5.099609 11.069182 2.75 7.766306 2.75 C 3.896393 2.75 .748014 5.906738 .748014 9.787109 C .748014 13.074585 2.97909 15.890381 6.17349 16.634888 C 6.342779 16.674073 6.46276 16.825684 6.46276 17 C 6.46276 17.174317 6.342779 17.325928 6.17349 17.365113 C 2.97909 18.10962 .748014 20.925415 .748014 24.21289 C .748014 28.093262 3.896393 31.25 7.766306 31.25 C 11.069182 31.25 13.95751 28.90039 14.634119 25.663453 C 14.670278 25.489869 14.823132 25.365357 15.000091 25.365357 C 15.17705 25.365357 15.329904 25.489869 15.366062 25.663453 C 16.04249 28.90039 18.930817 31.25 22.233693 31.25 C 26.103606 31.25 29.251986 28.093262 29.251986 24.21289 C 29.251986 20.925415 27.020909 18.10962 23.82651 17.365113 Z " fill="#3db370"/>
</g>
</svg>
